<?xml version="1.0" encoding="UTF-8"?>
<!DOCTYPE svg PUBLIC "-//W3C//DTD SVG 1.1//EN" "http://www.w3.org/Graphics/SVG/1.1/DTD/svg11.dtd">
<!-- Creator: CorelDRAW X6 -->
<svg xmlns="http://www.w3.org/2000/svg" xml:space="preserve" width="24.1909mm" height="26.5972mm" version="1.1" style="shape-rendering:geometricPrecision; text-rendering:geometricPrecision; image-rendering:optimizeQuality; fill-rule:evenodd; clip-rule:evenodd"
viewBox="0 0 441 485"
 xmlns:xlink="http://www.w3.org/1999/xlink">
 <defs>
  <style type="text/css">
   <![CDATA[
    .fil0 {fill:black}
   ]]>
  </style>
 </defs>
 <g id="Capa_x0020_1">
  <metadata id="CorelCorpID_0Corel-Layer"/>
  <path class="fil0" d="M97 101c-27,10 -20,22 -43,38 -19,14 -36,12 -44,36 -8,23 8,45 27,48 25,5 41,-11 67,8 8,6 11,13 24,16 40,12 60,-34 39,-63 -27,-37 -14,-37 -21,-59 -6,-18 -26,-34 -50,-25z"/>
  <path class="fil0" d="M214 429c3,20 24,34 48,30 14,-2 20,-3 34,1 17,5 14,8 24,16 19,14 45,11 56,-7 17,-30 -3,-47 -10,-59 -5,-8 -10,-19 -11,-31 -1,-14 -2,-23 -9,-31 -13,-16 -40,-20 -56,-6 -8,7 -11,16 -19,23 -21,21 -63,23 -57,63z"/>
  <path class="fil0" d="M90 1c-40,13 -30,90 9,80 38,-10 30,-92 -9,-80z"/>
  <path class="fil0" d="M169 25c-43,18 -36,91 6,74 40,-15 37,-92 -6,-74z"/>
  <path class="fil0" d="M375 259c-42,15 -40,89 3,76 14,-4 28,-23 30,-42 3,-22 -11,-42 -33,-34z"/>
  <path class="fil0" d="M296 236c-41,12 -30,91 9,80 15,-4 26,-26 25,-46 -1,-19 -14,-40 -34,-34z"/>
  <path class="fil0" d="M440 374c12,-42 -48,-51 -61,-11 -14,43 48,57 61,11z"/>
  <path class="fil0" d="M201 103c-45,13 -33,75 9,63 13,-4 27,-19 26,-37 -1,-18 -16,-32 -35,-26z"/>
  <path class="fil0" d="M18 56c-37,18 -12,78 23,64 14,-5 23,-24 18,-42 -4,-15 -21,-31 -41,-22z"/>
  <path class="fil0" d="M207 332c10,39 67,29 58,-16 -9,-43 -69,-31 -58,16z"/>
 </g>
</svg>
