<?xml version="1.0" encoding="UTF-8"?>
<!DOCTYPE svg PUBLIC "-//W3C//DTD SVG 1.1//EN" "http://www.w3.org/Graphics/SVG/1.1/DTD/svg11.dtd">
<!-- Creator: CorelDRAW X6 -->
<svg xmlns="http://www.w3.org/2000/svg" xml:space="preserve" width="56.3042mm" height="26.5973mm" version="1.1" style="shape-rendering:geometricPrecision; text-rendering:geometricPrecision; image-rendering:optimizeQuality; fill-rule:evenodd; clip-rule:evenodd"
viewBox="0 0 2604 1230"
 xmlns:xlink="http://www.w3.org/1999/xlink">
 <defs>
  <style type="text/css">
   <![CDATA[
    .fil0 {fill:#CCCCCC}
    .fil1 {fill:black;fill-rule:nonzero}
    .fil2 {fill:#E428C9;fill-rule:nonzero}
   ]]>
  </style>
 </defs>
 <g id="Capa_x0020_1">
  <metadata id="CorelCorpID_0Corel-Layer"/>
  <path class="fil0" d="M247 257c-68,26 -51,57 -109,97 -49,35 -92,31 -113,91 -20,59 19,113 69,123 62,12 105,-28 171,21 20,15 29,32 61,41 102,29 153,-86 100,-159 -68,-94 -36,-95 -53,-151 -14,-46 -67,-87 -126,-64z"/>
  <path class="fil0" d="M542 1088c7,50 60,87 122,76 35,-6 50,-8 85,4 42,14 35,20 62,40 48,36 115,29 142,-17 44,-75 -8,-120 -25,-148 -12,-20 -26,-48 -29,-78 -3,-35 -5,-57 -23,-80 -33,-41 -100,-50 -143,-15 -20,17 -29,40 -48,59 -54,54 -159,58 -144,159z"/>
  <path class="fil0" d="M229 3c-103,33 -77,229 23,202 97,-26 76,-234 -23,-202z"/>
  <path class="fil0" d="M428 62c-109,45 -92,230 15,189 102,-39 95,-234 -15,-189z"/>
  <path class="fil0" d="M952 657c-107,38 -102,225 8,192 37,-11 71,-58 76,-106 6,-56 -28,-107 -84,-86z"/>
  <path class="fil0" d="M751 599c-104,31 -77,231 22,202 38,-11 66,-65 64,-116 -2,-47 -35,-102 -86,-87z"/>
  <path class="fil0" d="M1115 948c31,-107 -122,-129 -154,-29 -35,109 120,143 154,29z"/>
  <path class="fil0" d="M509 261c-113,33 -83,191 23,159 33,-10 67,-48 66,-93 -2,-45 -39,-80 -88,-66z"/>
  <path class="fil0" d="M46 143c-93,46 -31,197 58,161 34,-14 58,-60 44,-107 -11,-38 -53,-79 -103,-55z"/>
  <path class="fil0" d="M524 841c24,100 171,73 147,-40 -23,-108 -176,-79 -147,40z"/>
  <polygon class="fil1" points="648,149 774,495 900,149 924,149 774,561 624,149 "/>
  <path id="1" class="fil1" d="M993 305l0 247 -23 0 0 -247 23 0zm-11 -88c6,0 12,2 16,7 4,4 7,10 7,16 0,6 -2,12 -7,16 -4,4 -10,7 -16,7 -6,0 -12,-2 -16,-7 -4,-4 -7,-10 -7,-16 0,-6 2,-12 7,-16 4,-4 10,-7 16,-7z"/>
  <polygon id="2" class="fil1" points="1096,149 1096,552 1074,552 1074,149 "/>
  <path id="3" class="fil1" d="M1438 552l-23 0 0 -50c-4,6 -9,12 -14,17 -27,27 -60,41 -98,41 -38,0 -71,-13 -98,-41 -27,-27 -41,-60 -41,-98 0,-38 13,-71 41,-98 27,-27 60,-41 98,-41 38,0 71,13 98,41 5,5 10,11 14,17l0 -35 23 0 0 247zm-23 -109l0 -45c-4,-22 -15,-42 -31,-58 -22,-22 -49,-33 -81,-33 -32,0 -58,11 -81,33 -22,22 -33,49 -33,81 0,32 11,58 33,81 22,22 49,33 81,33 32,0 58,-11 81,-33 17,-17 27,-36 31,-58z"/>
  <path id="4" class="fil2" d="M1580 191l-83 0 0 361 57 0 0 -136 27 0c57,0 85,-31 85,-89l0 -47c0,-58 -28,-89 -85,-89zm0 52c18,0 28,8 28,34l0 54c0,26 -10,34 -28,34l-27 0 0 -122 27 0z"/>
  <polygon id="5" class="fil2" points="1748,243 1846,243 1846,191 1691,191 1691,552 1846,552 1846,500 1748,500 1748,395 1826,395 1826,343 1748,343 "/>
  <polygon id="6" class="fil2" points="1881,552 2031,552 2031,500 1937,500 1937,191 1881,191 "/>
  <path id="7" class="fil2" d="M2053 191l0 275c0,58 29,91 85,91 56,0 85,-33 85,-91l0 -275 -54 0 0 278c0,26 -11,35 -29,35 -18,0 -29,-9 -29,-35l0 -278 -57 0z"/>
  <polygon id="8" class="fil2" points="2244,243 2303,243 2303,552 2360,552 2360,243 2419,243 2419,191 2244,191 "/>
  <path id="9" class="fil2" d="M2437 278c0,41 15,71 62,113 37,32 48,52 48,78 0,26 -11,35 -29,35 -18,0 -29,-9 -29,-35l0 -26 -54 0 0 22c0,58 29,91 85,91 56,0 85,-33 85,-91 0,-41 -15,-71 -62,-113 -37,-32 -48,-52 -48,-78 0,-26 10,-36 28,-36 18,0 28,10 28,36l0 15 54 0 0 -11c0,-58 -28,-91 -83,-91 -55,0 -83,33 -83,91z"/>
 </g>
</svg>
